<svg width="198" height="150" viewBox="0 0 198 150" fill="none" xmlns="http://www.w3.org/2000/svg">
<g clip-path="url(#clip0_319_258)">
<path d="M79.1054 14.4686C76.6969 18.6178 81.232 25.6087 76.6614 27.0605L77.0379 26.6839C79.7969 23.2903 74.0303 16.1075 76.7893 12.7138C77.2179 12.216 77.5859 11.669 77.8855 11.0844" fill="#2F2E41"/>
<path d="M101.661 75.3391C101.74 74.9239 101.727 74.4964 101.623 74.0868C101.519 73.6772 101.326 73.2954 101.058 72.9683C100.791 72.6412 100.455 72.3767 100.074 72.1935C99.6929 72.0104 99.2765 71.9129 98.8539 71.9081L92.9005 54.6117L89.6052 58.812L95.8997 74.9735C95.9387 75.684 96.2369 76.3556 96.7379 76.8609C97.2389 77.3662 97.9078 77.6702 98.6179 77.7153C99.3281 77.7603 100.03 77.5433 100.591 77.1054C101.152 76.6674 101.532 76.039 101.661 75.3391Z" fill="#FFB8B8"/>
<path d="M75.4916 33.5789C75.4916 33.5789 75.3063 27.3178 80.9052 30.9045C86.5041 34.4913 98.6944 68.0901 98.6944 68.0901L92.628 71.3722L78.8564 40.6254L75.4916 33.5789Z" fill="#6C63FF"/>
<path d="M92.0098 140.89L89.214 142.084L83.2753 131.869L87.4018 130.106L92.0098 140.89Z" fill="#FFB6B6"/>
<path d="M95.5552 145.103L93.5503 145.96L92.3835 144.22L92.2758 146.504L86.9582 148.777C86.7033 148.886 86.4203 148.91 86.1504 148.847C85.8805 148.784 85.638 148.636 85.4581 148.425C85.2783 148.214 85.1706 147.951 85.1507 147.674C85.1309 147.398 85.1999 147.122 85.3478 146.888L88.3411 142.14L87.5233 140.227L92.1038 138.585L95.5552 145.103Z" fill="#2F2E41"/>
<path d="M48.1829 144.354L45.1463 144.206L44.2734 132.422L48.7556 132.641L48.1829 144.354Z" fill="#FFB6B6"/>
<path d="M49.5286 149.694L47.3509 149.588L47.0626 147.513L45.9666 149.52L40.1907 149.238C39.9138 149.224 39.6485 149.123 39.4336 148.948C39.2186 148.773 39.0651 148.534 38.9957 148.265C38.9262 147.997 38.9443 147.713 39.0474 147.456C39.1505 147.199 39.3331 146.981 39.5686 146.835L44.3367 143.875L44.4383 141.796L49.2756 142.323L49.5286 149.694Z" fill="#2F2E41"/>
<path d="M137.657 142.477C137.858 142.484 138.057 142.43 138.226 142.32C138.395 142.211 138.526 142.052 138.602 141.866C138.678 141.68 138.694 141.474 138.65 141.278C138.605 141.082 138.501 140.904 138.352 140.769C138.326 140.671 138.308 140.6 138.282 140.502C138.47 140.011 138.8 139.588 139.23 139.286C139.66 138.984 140.17 138.818 140.695 138.808C141.221 138.798 141.737 138.945 142.178 139.23C142.619 139.516 142.965 139.926 143.171 140.409C144.36 143.121 145.893 145.926 145.173 148.932C150.019 138.403 148.213 125.379 140.818 116.484C138.787 115.391 137.13 113.429 136.682 111.137C137.685 111.466 138.924 110.641 138.162 109.595C137.833 109.195 137.5 108.799 137.17 108.399C140.93 104.318 145.516 110.633 141.387 116.132C142.771 117.834 143.974 119.676 144.975 121.628C144.728 119.548 144.979 117.438 145.706 115.474C146.445 113.642 147.848 112.093 149.081 110.504C150.58 108.568 153.712 109.424 153.94 111.861C152.543 112.335 152.381 114.359 153.985 114.621C153.609 119.161 150.685 123.359 146.622 125.387C148.17 129.602 148.801 134.099 148.474 138.577C149.145 133.34 154.747 132.018 158.651 129.902C158.899 129.739 159.189 129.652 159.486 129.652C159.783 129.652 160.073 129.738 160.322 129.899C160.57 130.061 160.767 130.292 160.886 130.563C161.006 130.835 161.045 131.135 160.997 131.428C160.457 131.653 159.941 131.931 159.457 132.259C159.23 132.415 159.057 132.637 158.961 132.895C158.865 133.153 158.852 133.434 158.922 133.7C158.992 133.966 159.143 134.204 159.354 134.381C159.565 134.558 159.826 134.666 160.1 134.689C158.169 139.602 153.087 142.938 147.835 142.97C147.351 145.168 146.64 147.309 145.713 149.36L137.918 149.435C137.89 149.348 137.864 149.259 137.838 149.173C138.56 149.211 139.284 149.161 139.993 149.024C138.063 146.782 136.576 145.643 137.657 142.477Z" fill="#F2F2F2"/>
<path d="M55.8541 67.7568C55.8541 67.7568 49.6788 84.586 49.579 86.4693C49.4792 88.3527 47.7181 112.168 46.2411 113.552C44.764 114.936 40.2484 136.389 43.762 138.067C47.2756 139.745 58.3609 136.965 58.3609 136.965L62.2172 111.624L63.5272 92.209C63.5272 92.209 67.5154 137.927 74.7489 137.793C81.9824 137.658 90.7968 134.904 90.7968 134.904L80.6724 107.217C80.6724 107.217 80.8155 74.4383 78.4688 67.8271C76.122 61.216 55.8541 67.7568 55.8541 67.7568Z" fill="#2F2E41"/>
<path d="M74.1782 24.3979L65.9081 25.1555L64.5757 29.2453C64.5757 29.2453 57.6547 33.0462 59.1872 34.773C60.7197 36.4998 58.8445 48.1369 58.8445 48.1369L59.2681 57.5829C59.2681 57.5829 58.8131 64.1272 57.4516 65.6351C56.09 67.1429 52.5279 70.8404 55.0448 69.0714C63.8699 62.869 79.2951 68.1025 79.2951 68.1025L77.0915 54.6055C77.0915 54.6055 82.0967 32.5075 80.1214 30.6413C78.1462 28.775 76.2825 28.5391 76.2825 28.5391L74.1782 24.3979Z" fill="#6C63FF"/>
<path d="M30.7221 67.2106C31.1376 67.1333 31.5311 66.9657 31.8748 66.7199C32.2186 66.474 32.5042 66.1557 32.7117 65.7875C32.9191 65.4192 33.0433 65.01 33.0755 64.5886C33.1076 64.1672 33.047 63.7438 32.8979 63.3484L46.8465 51.5144L41.7357 49.9716L28.9682 61.7108C28.3205 62.0053 27.8033 62.5273 27.5147 63.1777C27.2261 63.8281 27.1861 64.5618 27.4023 65.2397C27.6185 65.9176 28.0758 66.4927 28.6877 66.856C29.2996 67.2192 30.0234 67.3454 30.7221 67.2106Z" fill="#FFB8B8"/>
<path d="M66.1465 36.2563C66.1465 36.2563 68.8948 30.6275 62.3155 31.589C55.7361 32.5505 30.7861 58.1431 30.7861 58.1431L34.9615 63.633L60.1774 41.2907L66.1465 36.2563Z" fill="#6C63FF"/>
<path d="M55.4323 26.7086L29.3465 60.1279C28.8952 60.7079 28.6923 61.4432 28.7822 62.1726C28.872 62.9019 29.2474 63.566 29.826 64.0191C35.8838 78.7278 54.0071 89.635 75.3266 99.5351C75.9064 99.9868 76.6418 100.19 77.3713 100.1C78.1009 100.01 78.7649 99.6345 79.2177 99.0555L105.304 65.6362C105.755 65.0564 105.958 64.321 105.869 63.5915C105.779 62.8619 105.403 62.1979 104.824 61.7451C86.9329 51.6427 71.5556 39.9382 59.3234 26.2291C58.7434 25.7778 58.0081 25.5749 57.2787 25.6648C56.5494 25.7547 55.8854 26.13 55.4323 26.7086Z" fill="#E6E6E6"/>
<path d="M103.473 64.876L95.5324 75.0485C90.6821 81.2251 83.5846 85.2312 75.7901 86.1918C67.9957 87.1523 60.1379 84.9893 53.9331 80.1752L31.6809 62.806C31.3513 62.5486 31.1372 62.1709 31.0857 61.7559C31.0341 61.3408 31.1493 60.9223 31.4059 60.592L56.6127 28.2989C56.8707 27.9698 57.2488 27.7564 57.6639 27.7057C58.0791 27.6549 58.4974 27.7709 58.8272 28.0282C70.0835 42.5634 85.1511 53.8747 103.2 62.6639C103.529 62.9214 103.743 63.2989 103.794 63.7136C103.845 64.1283 103.729 64.5463 103.473 64.876Z" fill="white"/>
<path d="M54.9119 44.9524L49.7407 51.5772C49.6035 51.7527 49.4022 51.8665 49.1811 51.8937C48.96 51.9208 48.7372 51.8591 48.5616 51.722C48.386 51.585 48.272 51.3838 48.2446 51.1627C48.2173 50.9416 48.2788 50.7187 48.4157 50.543L53.5869 43.9181C53.6547 43.831 53.7391 43.7581 53.8352 43.7037C53.9312 43.6492 54.0371 43.6142 54.1467 43.6006C54.2563 43.587 54.3674 43.5952 54.4739 43.6247C54.5803 43.6541 54.6799 43.7042 54.7669 43.7722C54.854 43.8401 54.9268 43.9245 54.9812 44.0206C55.0356 44.1167 55.0705 44.2226 55.084 44.3322C55.0974 44.4418 55.0892 44.553 55.0596 44.6594C55.0301 44.7658 54.9799 44.8654 54.9119 44.9524Z" fill="#CCCCCC"/>
<path d="M64.6113 40.0382L53.2551 54.587C53.1872 54.674 53.1028 54.7468 53.0068 54.8012C52.9108 54.8555 52.8049 54.8905 52.6954 54.904C52.5859 54.9175 52.4747 54.9093 52.3684 54.8798C52.262 54.8504 52.1625 54.8003 52.0755 54.7324C51.9885 54.6645 51.9157 54.5801 51.8613 54.484C51.8069 54.388 51.772 54.2822 51.7585 54.1727C51.745 54.0631 51.7532 53.952 51.7827 53.8456C51.8121 53.7393 51.8622 53.6398 51.9301 53.5528L63.2863 39.004C63.3542 38.9168 63.4385 38.8438 63.5346 38.7892C63.6307 38.7347 63.7366 38.6996 63.8462 38.686C63.9559 38.6724 64.0671 38.6805 64.1736 38.7099C64.2801 38.7394 64.3797 38.7895 64.4668 38.8575C64.5539 38.9255 64.6268 39.01 64.6812 39.1061C64.7356 39.2023 64.7705 39.3082 64.7839 39.4179C64.7973 39.5276 64.789 39.6388 64.7594 39.7452C64.7298 39.8517 64.6795 39.9512 64.6113 40.0382Z" fill="#CCCCCC"/>
<path d="M45.2429 64.3055C48.3001 64.3055 50.7784 61.8272 50.7784 58.77C50.7784 55.7129 48.3001 53.2346 45.2429 53.2346C42.1858 53.2346 39.7075 55.7129 39.7075 58.77C39.7075 61.8272 42.1858 64.3055 45.2429 64.3055Z" fill="#6C63FF"/>
<path d="M65.2143 51.5367L51.2666 69.4055C51.121 69.5537 50.926 69.6432 50.7187 69.6569C50.5114 69.6706 50.3064 69.6075 50.1426 69.4796C49.9788 69.3518 49.8678 69.1682 49.8308 68.9638C49.7937 68.7594 49.8332 68.5485 49.9416 68.3713L63.8893 50.5025C64.0349 50.3542 64.2299 50.2648 64.4372 50.2511C64.6445 50.2374 64.8496 50.3005 65.0133 50.4283C65.1771 50.5562 65.2881 50.7398 65.3251 50.9442C65.3622 51.1486 65.3228 51.3595 65.2143 51.5367Z" fill="#CCCCCC"/>
<path d="M74.2625 47.4569L54.7949 72.3974C54.6493 72.5456 54.4543 72.6351 54.247 72.6488C54.0397 72.6624 53.8346 72.5993 53.6709 72.4715C53.5071 72.3437 53.3961 72.1601 53.359 71.9557C53.322 71.7512 53.3614 71.5403 53.4699 71.3632L72.9375 46.4226C73.083 46.2744 73.278 46.1849 73.4853 46.1713C73.6926 46.1576 73.8977 46.2207 74.0615 46.3485C74.2252 46.4763 74.3362 46.66 74.3733 46.8644C74.4104 47.0688 74.3709 47.2797 74.2625 47.4569Z" fill="#CCCCCC"/>
<path d="M74.1949 58.5466L60.2472 76.4154C60.1016 76.5636 59.9066 76.6531 59.6993 76.6668C59.492 76.6805 59.287 76.6174 59.1232 76.4895C58.9594 76.3617 58.8484 76.1781 58.8114 75.9737C58.7743 75.7693 58.8138 75.5584 58.9222 75.3812L72.8699 57.5124C73.0155 57.3641 73.2105 57.2747 73.4178 57.261C73.6251 57.2473 73.8301 57.3104 73.9939 57.4382C74.1577 57.5661 74.2687 57.7497 74.3057 57.9541C74.3428 58.1585 74.3033 58.3694 74.1949 58.5466Z" fill="#CCCCCC"/>
<path d="M92.65 60.7502L78.7023 78.619C78.5568 78.7672 78.3617 78.8567 78.1544 78.8704C77.9471 78.8841 77.7421 78.821 77.5783 78.6931C77.4146 78.5653 77.3036 78.3817 77.2665 78.1773C77.2294 77.9729 77.2689 77.762 77.3773 77.5848L91.325 59.716C91.4706 59.5677 91.6656 59.4783 91.8729 59.4646C92.0802 59.4509 92.2853 59.514 92.449 59.6418C92.6128 59.7697 92.7238 59.9533 92.7609 60.1577C92.7979 60.3621 92.7585 60.573 92.65 60.7502Z" fill="#6C63FF"/>
<path d="M83.2431 54.4669L63.7755 79.4074C63.6299 79.5556 63.4349 79.6451 63.2276 79.6588C63.0203 79.6724 62.8153 79.6093 62.6515 79.4815C62.4877 79.3537 62.3768 79.1701 62.3397 78.9657C62.3026 78.7613 62.3421 78.5503 62.4505 78.3732L81.9181 53.4326C82.0637 53.2844 82.2587 53.1949 82.466 53.1813C82.6733 53.1676 82.8784 53.2307 83.0421 53.3585C83.2059 53.4863 83.3169 53.67 83.3539 53.8744C83.391 54.0788 83.3515 54.2897 83.2431 54.4669Z" fill="#CCCCCC"/>
<path d="M60.313 13.8396C60.3125 15.1843 60.6421 16.5085 61.2728 17.696C61.9036 18.8835 62.8162 19.8981 63.9306 20.6506C65.045 21.4031 66.327 21.8705 67.6642 22.0119C69.0014 22.1532 70.3529 21.9641 71.6 21.4612C72.847 20.9583 73.9516 20.157 74.8167 19.1276C75.6818 18.0982 76.2809 16.8721 76.5615 15.5571C76.8422 14.242 76.7957 12.8782 76.4262 11.5853C76.0567 10.2924 75.3755 9.11 74.4423 8.14185L74.4029 8.10246C74.3372 8.03343 74.2714 7.96444 74.2024 7.8987C74.202 7.89871 74.2016 7.89863 74.2012 7.89846C74.2008 7.8983 74.2004 7.89806 74.2001 7.89775C74.1998 7.89745 74.1995 7.89708 74.1994 7.89668C74.1992 7.89628 74.1991 7.89585 74.1991 7.89541C74.1137 7.81655 74.0283 7.73769 73.9396 7.66212C72.7525 6.62144 71.2907 5.94492 69.7291 5.71356C68.1676 5.4822 66.5724 5.70581 65.1346 6.35761C63.6968 7.00942 62.4774 8.06179 61.6223 9.38874C60.7671 10.7157 60.3126 12.261 60.313 13.8396Z" fill="#2F2E41"/>
<path d="M70.5515 22.6287C74.3559 22.6287 77.4399 19.5447 77.4399 15.7403C77.4399 11.936 74.3559 8.85193 70.5515 8.85193C66.7472 8.85193 63.6631 11.936 63.6631 15.7403C63.6631 19.5447 66.7472 22.6287 70.5515 22.6287Z" fill="#FFB8B8"/>
<path d="M63.2082 17.576C62.5349 14.5418 63.5081 11.1424 65.6299 9.11671C66.6971 8.11802 68.0244 7.44069 69.4593 7.16256C70.8942 6.88443 72.3784 7.0168 73.7414 7.54444C73.9147 7.61438 74.0879 7.69091 74.2579 7.7708L74.337 7.80806V7.81962C74.3523 7.83025 74.3677 7.84141 74.383 7.85271C74.4151 7.88281 74.4542 7.9044 74.4968 7.91551C75.0949 7.89987 75.6895 8.01078 76.2418 8.24099C76.794 8.47119 77.2914 8.8155 77.7013 9.25134C78.769 10.4098 79.2717 12.2818 79.1176 14.5227L79.1127 14.5928L79.053 14.63C78.2447 15.1422 77.406 15.6047 76.5414 16.0148C73.5174 17.4367 70.7567 17.7002 68.1033 16.8192L68.0546 16.8031L66.941 14.9367C66.7123 16.2239 66.8345 20.4938 65.5226 20.7251L63.2367 17.7048L63.2082 17.576Z" fill="#2F2E41"/>
<path d="M48.7076 23.5737C51.0517 22.3638 48.037 17.9725 48.6427 15.4051C49.2486 12.8377 53.611 12.0119 53.889 9.38868C54.1669 6.76542 54.8206 4.05982 56.5517 2.06927C57.6578 0.797319 59.2877 -0.141684 60.9657 0.0176367C61.5335 0.0715405 62.083 0.24718 62.5768 0.532593C63.0706 0.818006 63.497 1.20649 63.8271 1.67158C64.1572 2.13667 64.3832 2.66743 64.4897 3.22774C64.5962 3.78804 64.5807 4.36471 64.4442 4.91847C64.922 4.24148 66.1584 4.38821 66.4645 5.15826C66.7366 5.84283 66.1355 6.67204 65.4281 6.73261C64.5025 7.87573 63.4425 9.08889 61.9923 9.31948C61.7613 9.37254 61.5212 9.37241 61.2902 9.31909C61.0592 9.26577 60.8434 9.16067 60.659 9.01171C60.3178 8.68409 60.2913 8.02907 60.696 7.78424C58.8735 8.50816 57.8051 10.4786 57.5347 12.4208C57.2643 14.363 57.6384 16.3281 57.8849 18.2735C58.1314 20.2189 58.2376 22.2653 57.4749 24.0718C56.5737 26.2063 54.4988 27.7361 52.2344 28.2266C49.97 28.7172 47.5585 28.2378 45.5088 27.1575C43.4592 26.0771 41.75 24.4279 40.3537 22.579C42.7588 24.2868 46.0864 24.9266 48.7076 23.5737Z" fill="#2F2E41"/>
<path d="M67.261 15.2949C64.8525 19.4441 69.3877 26.435 64.817 27.8868L65.1936 27.5102C67.9525 24.1166 62.1859 16.9337 64.9449 13.5401C65.3736 13.0423 65.7415 12.4953 66.0411 11.9106" fill="#2F2E41"/>
<path d="M63.5298 17.5132C63.5298 17.5132 65.5704 9.89658 74.3174 8.1386C74.3273 8.13535 74.3601 8.1222 74.4029 8.1025C74.4291 8.08606 74.462 8.06961 74.4949 8.0532C74.3963 7.99732 74.301 7.94806 74.2024 7.89873L74.2011 7.89849L74.2001 7.89778L74.1994 7.8967L74.1991 7.89544C74.1137 7.81658 74.0283 7.73772 73.9395 7.66215L73.6898 7.67202C73.6898 7.67202 64.9132 6.28211 63.5298 17.5132Z" fill="#FD6584"/>
<path d="M1.45893e-06 149.672C-0.000127286 149.715 0.00826609 149.758 0.0246943 149.798C0.0411225 149.838 0.0652647 149.874 0.0957299 149.904C0.126195 149.935 0.162381 149.959 0.20221 149.975C0.242038 149.992 0.284722 150 0.327805 150H197.355C197.442 150 197.525 149.966 197.586 149.904C197.648 149.843 197.682 149.759 197.682 149.672C197.682 149.585 197.648 149.502 197.586 149.44C197.525 149.379 197.442 149.344 197.355 149.344H0.327788C0.284707 149.344 0.242027 149.353 0.202201 149.369C0.162375 149.386 0.126189 149.41 0.0957257 149.44C0.0652626 149.471 0.0411221 149.507 0.0246943 149.547C0.00826648 149.587 -0.000125447 149.629 1.45893e-06 149.672Z" fill="#CCCCCC"/>
</g>
<defs>
<clipPath id="clip0_319_258">
<rect width="197.682" height="150" fill="white"/>
</clipPath>
</defs>
</svg>
