<svg width="240" height="150" viewBox="0 0 240 150" fill="none" xmlns="http://www.w3.org/2000/svg">
<g clip-path="url(#clip0_319_242)">
<path d="M25.0395 48.8811C24.3146 48.8782 23.6093 48.6447 23.0259 48.2143L18.1732 44.6888C17.7705 44.3947 17.2849 44.2363 16.7863 44.2363C16.2878 44.2363 15.8021 44.3947 15.3995 44.6888L10.5468 48.2143C9.96158 48.6395 9.25677 48.8685 8.53338 48.8686C7.80999 48.8686 7.10516 48.6396 6.51989 48.2145C5.93463 47.7893 5.49897 47.1898 5.27536 46.5018C5.05175 45.8139 5.05167 45.0728 5.27511 44.3848L7.12873 38.6802C7.28369 38.2063 7.28419 37.6955 7.13016 37.2213C6.97614 36.7471 6.67553 36.334 6.27167 36.0416L1.41898 32.516C0.83377 32.0908 0.398197 31.4912 0.174688 30.8032C-0.0488205 30.1152 -0.0487869 29.3741 0.174775 28.6861C0.398336 27.9981 0.833954 27.3985 1.4192 26.9733C2.00444 26.5481 2.70927 26.3191 3.43268 26.3191H9.43079C9.92928 26.32 10.4152 26.1626 10.8185 25.8696C11.2218 25.5766 11.5216 25.1631 11.6748 24.6888L13.5284 18.9842C13.7519 18.2961 14.1875 17.6965 14.7728 17.2712C15.3581 16.8459 16.063 16.6168 16.7865 16.6168C17.5099 16.6168 18.2149 16.8459 18.8001 17.2712C19.3854 17.6965 19.821 18.2961 20.0445 18.9842L21.8979 24.6888C22.0511 25.1631 22.351 25.5766 22.7544 25.8696C23.1577 26.1626 23.6436 26.32 24.1421 26.3191H30.1403C30.8637 26.3191 31.5685 26.5481 32.1537 26.9733C32.739 27.3985 33.1746 27.9981 33.3982 28.6861C33.6217 29.3741 33.6218 30.1152 33.3983 30.8032C33.1747 31.4912 32.7392 32.0908 32.154 32.516L27.3013 36.0416C26.8973 36.3339 26.5966 36.747 26.4426 37.2212C26.2885 37.6954 26.289 38.2063 26.444 38.6802L28.2976 44.3848C28.5293 45.0721 28.5333 45.8158 28.3092 46.5056C28.085 47.1954 27.6445 47.7946 27.053 48.2143C26.4696 48.6447 25.7645 48.8782 25.0395 48.8811Z" fill="white"/>
<path d="M74.2139 48.8811C73.489 48.8782 72.7839 48.6447 72.2005 48.2143L67.3478 44.6888C66.9448 44.3955 66.4593 44.2374 65.9608 44.2374C65.4624 44.2374 64.9769 44.3955 64.5739 44.6888L59.7212 48.2143C59.136 48.6395 58.4312 48.8686 57.7078 48.8686C56.9844 48.8687 56.2796 48.6397 55.6943 48.2145C55.1091 47.7893 54.6734 47.1898 54.4498 46.5018C54.2263 45.8138 54.2262 45.0728 54.4497 44.3848L56.3031 38.6802C56.4581 38.2063 56.4586 37.6955 56.3045 37.2213C56.1505 36.7471 55.8499 36.334 55.446 36.0416L50.5934 32.516C50.0082 32.0908 49.5726 31.4912 49.3491 30.8032C49.1256 30.1152 49.1256 29.3741 49.3491 28.6861C49.5727 27.9981 50.0083 27.3985 50.5936 26.9733C51.1788 26.5481 51.8836 26.3191 52.607 26.3191H58.6052C59.1037 26.32 59.5896 26.1626 59.9929 25.8696C60.3962 25.5766 60.696 25.1631 60.8492 24.6888L62.7028 18.9842C62.9263 18.2961 63.3619 17.6965 63.9472 17.2712C64.5325 16.8459 65.2374 16.6168 65.9609 16.6168C66.6843 16.6168 67.3892 16.8459 67.9745 17.2712C68.5598 17.6965 68.9954 18.2961 69.2189 18.9842L71.0725 24.6888C71.2257 25.1631 71.5256 25.5766 71.9289 25.8696C72.3322 26.1626 72.8181 26.32 73.3165 26.3191H79.3146C80.038 26.3191 80.7429 26.5481 81.3281 26.9733C81.9134 27.3985 82.349 27.9981 82.5725 28.6861C82.7961 29.3741 82.7961 30.1152 82.5726 30.8032C82.3491 31.4912 81.9135 32.0908 81.3283 32.516L76.4756 36.0416C76.0718 36.334 75.7712 36.7471 75.6171 37.2213C75.4631 37.6955 75.4636 38.2063 75.6186 38.6802L77.4719 44.3848C77.7036 45.072 77.7077 45.8157 77.4836 46.5055C77.2594 47.1953 76.819 47.7945 76.2276 48.2143C75.6441 48.6447 74.9389 48.8782 74.2139 48.8811Z" fill="white"/>
<path d="M106.454 49.0795C105.658 49.0763 104.884 48.8201 104.243 48.3478C103.593 47.8866 103.109 47.2282 102.863 46.4704C102.617 45.7125 102.621 44.8955 102.876 44.1404L104.729 38.436C104.862 38.0299 104.863 37.5921 104.731 37.1858C104.598 36.7795 104.341 36.4256 103.995 36.175L99.1419 32.6491C98.4991 32.182 98.0205 31.5234 97.775 30.7677C97.5294 30.0119 97.5294 29.1978 97.775 28.4421C98.0206 27.6863 98.4991 27.0277 99.142 26.5607C99.7849 26.0936 100.559 25.8421 101.354 25.8421H107.352C107.779 25.8429 108.196 25.708 108.541 25.4568C108.887 25.2056 109.144 24.8512 109.275 24.4446L111.129 18.7402C111.375 17.9844 111.853 17.3258 112.496 16.8588C113.139 16.3917 113.913 16.1401 114.708 16.1401C115.502 16.1401 116.277 16.3917 116.919 16.8588C117.562 17.3258 118.041 17.9844 118.286 18.7402L120.14 24.4446C120.271 24.8512 120.528 25.2056 120.874 25.4568C121.219 25.7079 121.636 25.8429 122.063 25.8421H128.061C128.856 25.8421 129.63 26.0937 130.273 26.5608C130.916 27.0278 131.394 27.6864 131.64 28.4421C131.886 29.1979 131.886 30.0119 131.64 30.7677C131.395 31.5234 130.916 32.182 130.273 32.6491L125.421 36.175C125.074 36.4254 124.817 36.7794 124.685 37.1857C124.553 37.5921 124.553 38.0298 124.686 38.436L126.539 44.1404C126.785 44.8961 126.785 45.7102 126.539 46.466C126.294 47.2217 125.815 47.8803 125.172 48.3474C124.529 48.8144 123.755 49.066 122.961 49.066C122.166 49.066 121.392 48.8145 120.749 48.3474L115.896 44.8219C115.551 44.5701 115.135 44.4344 114.707 44.4344C114.28 44.4344 113.864 44.5701 113.519 44.8219L108.666 48.3474C108.025 48.82 107.251 49.0764 106.454 49.0795ZM114.708 42.6931C115.502 42.6933 116.277 42.9456 116.919 43.4138L121.772 46.9392C122.117 47.1904 122.533 47.3257 122.961 47.3258C123.388 47.3258 123.804 47.1907 124.149 46.9396C124.495 46.6886 124.752 46.3346 124.884 45.9283C125.016 45.5221 125.016 45.0845 124.884 44.6783L123.031 38.9739C122.783 38.2183 122.783 37.4037 123.028 36.6476C123.274 35.8915 123.754 35.2329 124.398 34.7669L129.25 31.241C129.596 30.99 129.853 30.636 129.985 30.2298C130.117 29.8236 130.117 29.3861 129.985 28.98C129.853 28.5738 129.596 28.2198 129.25 27.9688C128.905 27.7177 128.489 27.5825 128.061 27.5825H122.063C121.268 27.584 120.493 27.333 119.85 26.8657C119.207 26.3984 118.729 25.739 118.485 24.9825L116.631 19.2781C116.499 18.8719 116.242 18.5179 115.896 18.2668C115.551 18.0158 115.135 17.8806 114.708 17.8806C114.28 17.8806 113.864 18.0158 113.519 18.2668C113.173 18.5179 112.916 18.8719 112.784 19.2781L110.93 24.9825C110.686 25.739 110.208 26.3985 109.565 26.8658C108.922 27.333 108.147 27.584 107.352 27.5825H101.354C100.927 27.5825 100.511 27.7177 100.165 27.9687C99.8195 28.2197 99.5623 28.5737 99.4303 28.9798C99.2983 29.386 99.2983 29.8236 99.4303 30.2298C99.5622 30.636 99.8194 30.9899 100.165 31.241L105.018 34.7669C105.662 35.233 106.141 35.8916 106.387 36.6477C106.632 37.4037 106.632 38.2183 106.385 38.9739L104.531 44.6783C104.399 45.0845 104.399 45.522 104.531 45.9282C104.663 46.3344 104.92 46.6884 105.266 46.9394C105.611 47.1904 106.027 47.3256 106.454 47.3256C106.881 47.3255 107.298 47.1903 107.643 46.9392L112.496 43.4138C113.138 42.9456 113.913 42.6933 114.708 42.6931Z" fill="#3F3D56"/>
<path d="M197.754 57.8279L185.833 68.0763L167.148 84.1324L164.623 86.3036C164.392 86.5004 164.202 86.7412 164.065 87.012C163.928 87.2828 163.845 87.5781 163.823 87.8809C163.791 88.3205 163.884 88.7602 164.092 89.1488C164.171 89.2953 164.266 89.4328 164.375 89.5588L165.729 91.1363L167.791 93.5352C167.829 93.5776 167.865 93.6172 167.906 93.6574C168.318 94.0698 168.87 94.3114 169.453 94.3339C170.035 94.3563 170.605 94.158 171.047 93.7785L192.234 75.5739L204.181 65.3056C204.644 64.9056 204.93 64.3383 204.975 63.728C205.021 63.1177 204.823 62.5142 204.424 62.0498L203.703 61.2116L201.009 58.0761C200.812 57.8457 200.571 57.6565 200.301 57.5193C200.03 57.3821 199.736 57.2996 199.433 57.2766C199.131 57.2535 198.827 57.2903 198.539 57.3849C198.251 57.4795 197.984 57.6301 197.754 57.8279Z" fill="#6C63FF"/>
<path d="M206.839 49.2053C217.336 49.2053 225.846 40.6959 225.846 30.199C225.846 19.7021 217.336 11.1926 206.839 11.1926C196.343 11.1926 187.833 19.7021 187.833 30.199C187.833 40.6959 196.343 49.2053 206.839 49.2053Z" fill="white"/>
<path d="M208.236 104.007V147.692C208.237 148.304 208.48 148.89 208.913 149.323C209.346 149.756 209.932 149.999 210.544 150H215.786C216.398 149.999 216.985 149.756 217.418 149.323C217.851 148.89 218.094 148.304 218.094 147.692V104.007C218.094 103.395 217.85 102.808 217.418 102.375C216.985 101.942 216.398 101.699 215.786 101.698H210.544C209.932 101.699 209.346 101.942 208.913 102.375C208.48 102.808 208.237 103.395 208.236 104.007Z" fill="#2F2E41"/>
<path d="M197.16 104.007V147.692C197.16 147.995 197.219 148.295 197.335 148.575C197.451 148.855 197.621 149.11 197.836 149.324C198.05 149.538 198.304 149.708 198.585 149.824C198.865 149.94 199.165 150 199.468 150H204.71C205.322 149.999 205.908 149.756 206.341 149.323C206.774 148.89 207.017 148.304 207.018 147.692V104.007C207.017 103.395 206.774 102.808 206.341 102.375C205.908 101.942 205.322 101.699 204.71 101.698H199.468C199.165 101.698 198.865 101.758 198.585 101.874C198.304 101.99 198.05 102.16 197.836 102.375C197.621 102.589 197.451 102.843 197.335 103.123C197.219 103.404 197.16 103.704 197.16 104.007Z" fill="#2F2E41"/>
<path d="M199.288 109.991C197.315 109.99 195.369 109.544 193.592 108.687C191.816 107.83 190.255 106.584 189.026 105.041C187.797 103.499 186.931 101.699 186.492 99.7761C186.054 97.8532 186.054 95.8562 186.493 93.9333L192.422 67.9411C192.426 65.2526 193.171 62.6173 194.575 60.3246C195.979 58.0319 197.987 56.1704 200.38 54.9448C202.773 53.7191 205.457 53.1767 208.138 53.377C210.819 53.5773 213.393 54.5126 215.577 56.0803C217.465 57.4356 219.004 59.2203 220.066 61.2872C221.129 63.3541 221.685 65.644 221.689 67.9681C221.697 68.2029 222.523 92.3753 222.87 103.545C222.894 104.31 222.766 105.071 222.495 105.786C222.223 106.501 221.813 107.155 221.288 107.71C220.763 108.266 220.133 108.713 219.435 109.024C218.737 109.336 217.984 109.507 217.219 109.526L199.711 109.985C199.569 109.989 199.428 109.991 199.288 109.991Z" fill="#2F2E41"/>
<path d="M190.789 38.6009L190.809 37.8906C189.487 37.8539 188.323 37.771 187.447 37.1315C187.199 36.9398 186.995 36.697 186.849 36.4195C186.703 36.142 186.619 35.8364 186.602 35.5233C186.586 35.332 186.615 35.1398 186.686 34.9615C186.757 34.7832 186.868 34.6237 187.011 34.4954C187.592 34.0046 188.527 34.1635 189.208 34.476L189.796 34.7454L188.669 26.5098L187.965 26.6062L188.924 33.6117C187.998 33.3395 187.14 33.4567 186.552 33.953C186.327 34.15 186.15 34.3965 186.035 34.6732C185.921 34.9499 185.871 35.2494 185.892 35.5483C185.912 35.9689 186.025 36.3799 186.221 36.7525C186.418 37.1251 186.693 37.4502 187.028 37.7051C188.153 38.527 189.615 38.5679 190.789 38.6009Z" fill="#2F2E41"/>
<path d="M196.56 27.2102H192.735V27.9205H196.56V27.2102Z" fill="#2F2E41"/>
<path d="M211.805 61.3768L212.459 77.0843L213.478 101.698L213.616 105.026C213.627 105.329 213.699 105.628 213.826 105.903C213.954 106.179 214.135 106.426 214.359 106.631C214.683 106.929 215.086 107.129 215.52 107.207C215.684 107.235 215.851 107.246 216.017 107.239L218.095 107.153L221.255 107.022C221.312 107.018 221.365 107.015 221.422 107.008C222.001 106.94 222.533 106.656 222.912 106.213C223.29 105.77 223.488 105.2 223.464 104.618L222.31 76.7079L221.657 60.9684C221.63 60.357 221.362 59.7811 220.911 59.3671C220.46 58.953 219.864 58.7345 219.252 58.7595L218.148 58.8057L214.018 58.9761C213.715 58.9881 213.417 59.0597 213.142 59.1869C212.866 59.3141 212.619 59.4944 212.413 59.7174C212.208 59.9404 212.048 60.2018 211.944 60.4865C211.84 60.7713 211.792 61.0738 211.805 61.3768Z" fill="#6C63FF"/>
<path d="M210.211 62.7051V74.7796C210.211 75.3809 210.446 75.9584 210.866 76.3889C211.286 76.8195 211.857 77.069 212.459 77.0844C212.479 77.0874 212.499 77.0886 212.519 77.0879H221.042C221.179 77.0876 221.316 77.0745 221.451 77.0489C221.757 76.9952 222.05 76.8792 222.31 76.7079C222.629 76.4972 222.891 76.2109 223.072 75.8744C223.254 75.538 223.35 75.1619 223.351 74.7796V62.7051C223.348 60.9633 222.656 59.2934 221.424 58.0618C220.192 56.8301 218.522 56.1373 216.781 56.1352C216.33 56.1341 215.88 56.1805 215.438 56.2737C213.962 56.5839 212.636 57.3921 211.685 58.563C210.733 59.7339 210.213 61.1962 210.211 62.7051Z" fill="#2F2E41"/>
<path d="M185.309 67.7444C185.397 68.0312 185.54 68.2979 185.731 68.5292L191.129 75.124C191.226 75.2459 191.337 75.3556 191.46 75.4507C191.872 75.7868 192.388 75.97 192.92 75.9694C193.452 75.9687 193.967 75.7843 194.379 75.4472L203.722 67.8012C204.39 67.2546 204.943 66.5819 205.351 65.8214C205.759 65.0609 206.012 64.2276 206.098 63.3691C206.184 62.5105 206.099 61.6435 205.85 60.8175C205.6 59.9916 205.19 59.2229 204.644 58.5553C204.097 57.8876 203.425 57.3342 202.664 56.9266C201.904 56.519 201.07 56.2652 200.212 56.1796C199.353 56.094 198.486 56.1784 197.66 56.4279C196.834 56.6774 196.066 57.0872 195.398 57.6338L186.055 65.2798C185.701 65.571 185.441 65.9605 185.309 66.3991C185.176 66.8377 185.176 67.3058 185.309 67.7444Z" fill="#2F2E41"/>
<path d="M203.929 19.0234C200.763 20.3417 197.353 21.8001 193.844 21.396C190.969 21.0649 188.207 19.3842 187.545 16.4141C186.912 13.576 188.22 10.6154 190.305 8.71432C192.663 6.56385 195.918 5.52345 199.025 5.08462C200.902 4.8195 202.988 4.80235 204.718 5.681C206.104 6.38432 207.349 7.65599 207.563 9.25454L208.895 8.89399C207.954 7.29914 208.404 5.36616 209.445 3.93353C210.697 2.211 212.798 1.49365 214.861 1.43373C219.058 1.31186 223.352 3.25941 226.732 5.61666C230.06 7.94664 232.8 11.02 234.734 14.5931C236.903 18.6066 238.097 23.406 237.368 27.9603C236.625 32.5956 233.627 36.9941 228.985 38.3894C228.107 38.6534 228.481 40.0327 229.365 39.767C233.796 38.4351 237.069 34.5984 238.326 30.2229C239.77 25.195 238.777 19.6885 236.561 15.0395C234.596 10.9756 231.664 7.45618 228.021 4.79043C224.38 2.10639 219.661 -0.052645 215.061 0.000977662C212.418 0.031781 209.859 0.973719 208.259 3.14791C206.893 5.00417 206.455 7.57057 207.661 9.61509C207.992 10.1763 209.091 9.99227 208.992 9.25453C208.491 5.51382 204.871 3.59078 201.385 3.50776C199.417 3.50023 197.46 3.78966 195.579 4.36629C193.838 4.84307 192.186 5.59815 190.687 6.6023C187.872 8.55111 185.891 11.6632 185.97 15.1677C186.05 18.6639 188.405 21.3495 191.669 22.3835C195.977 23.7481 200.346 22.051 204.309 20.4011C204.488 20.3453 204.639 20.2235 204.732 20.0603C204.825 19.8971 204.852 19.7048 204.808 19.5223C204.757 19.3402 204.636 19.1856 204.471 19.0922C204.306 18.9988 204.112 18.9741 203.929 19.0234Z" fill="white"/>
<path d="M145.933 89.0558C145.137 89.0526 144.363 88.7964 143.722 88.3241C143.072 87.8629 142.588 87.2046 142.342 86.4467C142.096 85.6889 142.1 84.8718 142.355 84.1167L144.208 78.4123C144.341 78.0062 144.341 77.5684 144.209 77.1621C144.077 76.7558 143.82 76.4019 143.474 76.1513L138.621 72.6255C137.978 72.1584 137.499 71.4998 137.254 70.744C137.008 69.9882 137.008 69.1742 137.254 68.4184C137.499 67.6627 137.978 67.0041 138.621 66.537C139.264 66.0699 140.038 65.8184 140.833 65.8184H146.831C147.258 65.8192 147.675 65.6843 148.02 65.4331C148.366 65.1819 148.623 64.8275 148.754 64.4209L150.608 58.7165C150.853 57.9607 151.332 57.3021 151.975 56.8351C152.618 56.368 153.392 56.1165 154.187 56.1165C154.981 56.1165 155.755 56.368 156.398 56.8351C157.041 57.3021 157.52 57.9607 157.765 58.7165L159.619 64.4209C159.75 64.8275 160.007 65.1819 160.353 65.4331C160.698 65.6842 161.115 65.8192 161.542 65.8184H167.54C168.335 65.8184 169.109 66.07 169.752 66.5371C170.395 67.0042 170.873 67.6628 171.119 68.4185C171.364 69.1742 171.365 69.9883 171.119 70.744C170.873 71.4997 170.395 72.1583 169.752 72.6255L164.9 76.1513C164.553 76.4018 164.296 76.7557 164.164 77.162C164.031 77.5684 164.032 78.0062 164.165 78.4123L166.018 84.1167C166.264 84.8725 166.264 85.6865 166.018 86.4423C165.773 87.198 165.294 87.8566 164.651 88.3237C164.008 88.7908 163.234 89.0423 162.439 89.0423C161.645 89.0423 160.871 88.7908 160.228 88.3237L155.375 84.7983C155.03 84.5464 154.614 84.4107 154.186 84.4107C153.759 84.4107 153.343 84.5464 152.998 84.7983L148.145 88.3237C147.504 88.7963 146.73 89.0527 145.933 89.0558ZM154.187 82.6695C154.981 82.6696 155.756 82.9219 156.398 83.3901L161.251 86.9156C161.596 87.1667 162.012 87.302 162.439 87.3021C162.867 87.3022 163.283 87.167 163.628 86.9159C163.974 86.6649 164.231 86.3109 164.363 85.9047C164.495 85.4984 164.495 85.0608 164.363 84.6546L162.509 78.9502C162.262 78.1946 162.262 77.38 162.507 76.6239C162.753 75.8678 163.232 75.2093 163.877 74.7432L168.729 71.2173C169.075 70.9663 169.332 70.6123 169.464 70.2061C169.596 69.8 169.596 69.3624 169.464 68.9563C169.332 68.5501 169.075 68.1961 168.729 67.9451C168.384 67.6941 167.967 67.5589 167.54 67.5588H161.542C160.747 67.5603 159.972 67.3093 159.329 66.842C158.686 66.3748 158.208 65.7153 157.964 64.9588L156.11 59.2544C155.978 58.8482 155.721 58.4942 155.375 58.2431C155.03 57.9921 154.614 57.8568 154.186 57.8568C153.759 57.8568 153.343 57.9921 152.998 58.2431C152.652 58.4942 152.395 58.8482 152.263 59.2544L150.409 64.9588C150.165 65.7153 149.687 66.3748 149.044 66.8421C148.401 67.3094 147.626 67.5603 146.831 67.5588H140.833C140.406 67.5588 139.989 67.694 139.644 67.945C139.298 68.196 139.041 68.55 138.909 68.9562C138.777 69.3623 138.777 69.7999 138.909 70.2061C139.041 70.6123 139.298 70.9663 139.644 71.2173L144.497 74.7432C145.141 75.2093 145.62 75.8679 145.866 76.624C146.111 77.3801 146.111 78.1946 145.864 78.9502L144.01 84.6546C143.878 85.0608 143.878 85.4984 144.01 85.9046C144.142 86.3107 144.399 86.6647 144.745 86.9158C145.09 87.1668 145.506 87.302 145.933 87.3019C146.36 87.3019 146.776 87.1666 147.122 86.9156L151.975 83.3901C152.617 82.9219 153.392 82.6696 154.187 82.6695Z" fill="#3F3D56"/>
</g>
<defs>
<clipPath id="clip0_319_242">
<rect width="239.003" height="150" fill="white"/>
</clipPath>
</defs>
</svg>
