<svg width="200" height="137" viewBox="0 0 200 137" fill="none" xmlns="http://www.w3.org/2000/svg">
<g clip-path="url(#clip0_316_293)">
<path d="M69.4896 130.948C69.3305 130.955 69.1729 130.913 69.0383 130.828C68.9037 130.743 68.7986 130.618 68.7372 130.471C68.6757 130.324 68.6609 130.162 68.6948 130.006C68.7287 129.851 68.8096 129.709 68.9265 129.601L68.9798 129.389C68.9728 129.373 68.9657 129.356 68.9586 129.339C68.7983 128.96 68.5297 128.637 68.1865 128.411C67.8433 128.184 67.4409 128.064 67.0297 128.066C66.6185 128.067 66.2169 128.19 65.8754 128.419C65.5339 128.648 65.2677 128.973 65.1102 129.353C64.4808 130.869 63.6794 132.387 63.4821 133.99C63.3952 134.699 63.4319 135.417 63.5905 136.113C62.1121 132.888 61.3445 129.383 61.3395 125.836C61.3392 124.945 61.3887 124.056 61.4877 123.171C61.5695 122.446 61.683 121.726 61.8282 121.011C62.6206 117.132 64.3218 113.496 66.7922 110.402C67.9879 109.75 68.9548 108.746 69.5627 107.527C69.783 107.089 69.9386 106.622 70.0249 106.139C69.89 106.157 69.5163 104.102 69.618 103.976C69.4301 103.691 69.0936 103.549 68.8884 103.271C67.8674 101.887 66.4608 102.128 65.7264 104.01C64.1577 104.801 64.1425 106.114 65.1051 107.377C65.7175 108.18 65.8016 109.268 66.3389 110.128C66.2836 110.198 66.2261 110.267 66.1709 110.338C65.1604 111.637 64.2796 113.032 63.5413 114.504C63.7209 112.855 63.5066 111.188 62.9161 109.639C62.3176 108.195 61.1958 106.979 60.208 105.731C59.0215 104.232 56.5883 104.886 56.3793 106.787C56.3772 106.805 56.3753 106.824 56.3733 106.842C56.5201 106.925 56.6637 107.013 56.8042 107.106C56.9808 107.223 57.1176 107.392 57.1967 107.589C57.2758 107.786 57.2936 108.002 57.2477 108.21C57.2017 108.417 57.0943 108.606 56.9393 108.751C56.7844 108.896 56.5892 108.991 56.3794 109.023L56.3579 109.027C56.4101 109.555 56.5025 110.079 56.6343 110.594C55.367 115.495 58.1029 117.28 62.0095 117.36C62.0957 117.405 62.1798 117.449 62.266 117.491C61.5242 119.593 61.0589 121.783 60.8818 124.005C60.7816 125.316 60.7875 126.633 60.8995 127.943L60.8929 127.896C60.6098 126.44 59.8327 125.125 58.6928 124.175C56.9997 122.784 54.6077 122.272 52.7812 121.154C52.5871 121.03 52.3613 120.963 52.1307 120.962C51.9 120.962 51.6739 121.027 51.4792 121.151C51.2845 121.275 51.1292 121.451 51.0317 121.66C50.9341 121.87 50.8984 122.102 50.9287 122.331C50.9311 122.347 50.9336 122.363 50.9362 122.38C51.2085 122.491 51.4736 122.618 51.73 122.762C51.8767 122.845 52.0203 122.933 52.1608 123.026C52.3374 123.144 52.4742 123.312 52.5533 123.509C52.6324 123.706 52.6502 123.923 52.6043 124.13C52.5583 124.337 52.4509 124.526 52.2959 124.671C52.141 124.816 51.9458 124.911 51.736 124.943L51.7145 124.947C51.699 124.949 51.6857 124.951 51.6703 124.953C52.1355 126.064 52.7885 127.087 53.6006 127.976C54.393 132.254 57.7963 132.66 61.4368 131.414H61.439C61.8385 133.15 62.4172 134.84 63.1659 136.456H69.335C69.3571 136.387 69.377 136.316 69.3969 136.248C68.8259 136.284 68.2526 136.25 67.6899 136.146C68.1476 135.585 68.6053 135.018 69.063 134.457C69.0732 134.446 69.0828 134.435 69.0918 134.424C69.324 134.136 69.5583 133.851 69.7905 133.564L69.7906 133.563C69.803 132.682 69.7017 131.803 69.4896 130.948Z" fill="#F2F2F2"/>
<path d="M22.0392 121.617L23.7413 123.416L31.645 117.56L29.1328 114.905L22.0392 121.617Z" fill="#A0616A"/>
<path d="M24.8285 122.612L22.9015 120.802L22.4283 120.358L17.5225 124.28L18.7986 125.629L20.3007 124.666L19.6107 126.488L22.9942 130.064C23.1563 130.235 23.369 130.351 23.6012 130.393C23.8334 130.435 24.073 130.401 24.285 130.298C24.497 130.194 24.6703 130.025 24.7797 129.816C24.889 129.607 24.9286 129.368 24.8927 129.135L24.1625 124.411L25.4492 123.194L24.8285 122.612Z" fill="#2F2E41"/>
<path d="M59.448 56.115L58.9083 62.0065C58.9083 62.0065 57.9663 66.4453 58.6186 66.0855C59.2708 65.7257 58.1013 67.345 58.4093 68.7492C58.7173 70.1534 55.7785 80.6247 57.1096 79.54C58.4407 78.4552 56.3403 85.949 55.0119 89.6461C54.6052 90.789 54.1873 91.9457 53.7667 93.0941C53.6837 93.3267 53.6006 93.5562 53.5149 93.7888C52.9697 95.2831 52.4245 96.7552 51.9016 98.1444C51.8269 98.3382 51.7548 98.5318 51.683 98.7229C51.6801 98.7283 51.6801 98.7338 51.6774 98.7338C49.9561 103.264 48.4811 106.828 47.8917 107.418C47.5846 107.725 42.7114 111.245 37.7995 114.77C32.6441 118.47 27.4471 122.178 27.4471 122.178L22.5933 117.087C22.5933 117.087 22.7095 117.053 22.9281 116.987C23.3321 116.871 24.0793 116.652 25.059 116.361C29.1434 115.158 23.9548 113.284 27.663 111.945C28.709 111.569 29.4064 111.275 29.564 111.12C30.4856 110.221 31.7226 108.076 32.3065 108.976C32.8903 109.875 35.5387 103.192 36.3024 102.531C36.712 102.174 38.0486 100.505 39.1943 99.0382C40.1793 97.7763 41.0261 96.6612 41.0261 96.6612C41.0261 96.6612 41.0427 96.0634 41.0676 95.1115C41.1037 93.703 41.1562 91.514 41.2116 89.3223C41.2088 89.3195 41.2088 89.3195 41.2116 89.3195C41.231 88.4949 41.2503 87.6702 41.2697 86.8871C41.2835 86.281 41.2973 85.6972 41.3112 85.1575C41.3472 83.5415 41.372 82.3183 41.372 82.0139C41.372 81.015 41.372 81.7926 42.1607 81.1893C42.2785 81.0968 42.3903 80.9969 42.4956 80.8904C42.6642 80.7386 42.8197 80.5729 42.9605 80.395C43.0186 80.2706 42.6561 80.4393 42.1856 80.3453C41.9308 80.2941 41.6952 80.1734 41.5049 79.9966C40.5141 79.1056 41.5824 76.366 41.5824 76.366C39.3298 71.8608 39.4932 68.1664 40.5474 65.3189C41.3357 63.2755 42.587 61.4427 44.203 59.9643C44.818 59.3782 45.488 58.8527 46.2038 58.3951L46.273 58.0216L47.034 53.9011C47.4387 53.6788 47.8596 53.4874 48.293 53.3284C49.6447 52.8434 51.0951 52.6989 52.5158 52.9077C53.9279 53.1121 55.295 53.5547 56.5589 54.2167C57.5921 54.7357 58.5615 55.3727 59.448 56.115Z" fill="#2F2E41"/>
<path d="M38.194 130.796L40.66 131.025L42.7379 121.411L39.0981 121.072L38.194 130.796Z" fill="#A0616A"/>
<path d="M45.296 134.565L41.6321 131.496L41.7982 129.73L40.9459 129.702L38.306 129.617H38.3031L37.6556 129.594L36.5569 135.777L38.4082 135.948L38.898 134.233L39.5816 136.059L40.5612 136.15L44.4825 136.516C44.5157 136.518 44.5517 136.521 44.5849 136.521C44.7408 136.521 44.8949 136.488 45.0371 136.424C45.1793 136.36 45.3062 136.267 45.4095 136.15C45.5701 135.975 45.6683 135.751 45.689 135.514C45.7052 135.336 45.6779 135.156 45.6095 134.991C45.541 134.825 45.4335 134.679 45.296 134.565Z" fill="#2F2E41"/>
<path d="M51.9015 98.1444C50.9634 103.25 46.9923 115.221 44.5904 122.228C43.4973 125.43 42.7336 127.597 42.7336 127.597L41.4883 127.204H41.4854L39.3796 126.539L38.613 126.296H38.6102L37.6804 126C37.6804 126 37.7884 120.283 37.7995 114.77C37.8077 112.46 37.7966 110.182 37.7524 108.378C37.7026 106.41 37.6168 105.002 37.4757 104.722C36.8917 103.577 37.8687 103.455 38.9008 103.167C39.9357 102.877 39.1277 102.439 38.7264 101.509C38.4554 100.89 38.9893 100.062 39.3685 99.5917C39.4731 99.4593 39.5849 99.3327 39.7033 99.2126C39.7033 99.2126 39.5207 99.1489 39.1942 99.0383C40.1792 97.7764 41.026 96.6612 41.026 96.6612C41.026 96.6612 41.0427 96.0634 41.0675 95.1115C41.1036 93.703 41.1562 91.514 41.2116 89.3224C41.2087 89.3195 41.2087 89.3195 41.2116 89.3195C41.2309 88.4949 41.2502 87.6702 41.2697 86.8871C42.8525 88.102 44.3911 89.292 45.7858 90.3933C45.7875 90.3946 45.7889 90.3963 45.7899 90.3982C45.7909 90.4002 45.7914 90.4023 45.7914 90.4044C49.1425 93.0527 51.6581 95.178 52.0122 95.8532C52.1727 96.1575 52.1173 96.9712 51.9015 98.1444Z" fill="#2F2E41"/>
<path d="M134.402 7.9954C134.863 7.95226 135.323 8.09083 135.684 8.38162C136.045 8.67242 136.278 9.09249 136.334 9.55245C136.343 9.64612 136.345 9.74045 136.34 9.83447L142.046 12.2714L141.829 15.6021L134.372 11.4187C133.984 11.3648 133.625 11.184 133.35 10.9045C133.076 10.625 132.902 10.2625 132.855 9.87353C132.831 9.65197 132.85 9.42775 132.912 9.21368C132.974 8.99961 133.078 8.79988 133.217 8.6259C133.357 8.45191 133.529 8.30708 133.724 8.19967C133.92 8.09226 134.134 8.02437 134.356 7.99989C134.371 7.99818 134.387 7.99669 134.402 7.9954Z" fill="#FFB6B6"/>
<path d="M173.228 28.5556C173.087 27.9098 172.825 27.2967 172.455 26.7485C172.353 26.5925 172.241 26.4428 172.121 26.3001C171.672 25.7661 171.254 25.2763 170.867 24.8391C170.632 24.565 170.402 24.3105 170.186 24.0754C168.933 22.7 168.111 21.9722 167.735 21.9113C167.552 21.8809 167.372 21.8587 167.198 21.8365C166.304 21.7259 165.656 21.6456 165.637 20.7019C165.635 20.5667 165.644 20.4316 165.665 20.2979C165.698 20.0734 165.747 19.8515 165.811 19.6338C165.848 19.5104 165.877 19.3847 165.897 19.2575C165.925 19.0942 165.914 18.9724 165.825 18.8976C165.714 18.8064 165.529 18.8202 165.18 18.9586C165.125 18.9807 165.061 19.0056 164.995 19.036C164.973 19.0444 164.951 19.0555 164.926 19.0665C164.881 19.0859 164.832 19.108 164.782 19.1329C164.364 19.3322 163.719 19.3571 162.983 19.2823C160.811 19.061 157.872 17.9652 157.836 17.9513L139.328 10.7592L139.157 11.0359L138.75 11.6945L138.609 11.9213L138.448 12.1814L137.748 13.3105L137.394 13.8806L143.371 18.3885L144.022 18.8783L144.581 19.3018L155.993 27.9108L160.249 30.7195L161.198 31.3449L165.244 34.0126C165.826 34.3968 166.478 34.6606 167.163 34.7885C167.848 34.9164 168.552 34.9057 169.233 34.7572C169.914 34.6086 170.558 34.3251 171.128 33.9235C171.698 33.5219 172.181 33.0102 172.55 32.4187C173.268 31.2676 173.511 29.8825 173.228 28.5556Z" fill="#E6E6E6"/>
<path d="M199.723 136.703H0.276728C0.203335 136.703 0.132948 136.674 0.0810516 136.622C0.029155 136.57 0 136.5 0 136.427C0 136.353 0.029155 136.283 0.0810516 136.231C0.132948 136.179 0.203335 136.15 0.276728 136.15H199.723C199.797 136.15 199.867 136.179 199.919 136.231C199.971 136.283 200 136.353 200 136.427C200 136.5 199.971 136.57 199.919 136.622C199.867 136.674 199.797 136.703 199.723 136.703Z" fill="#E6E6E6"/>
<path d="M45.6367 46.1558L46.1552 50.9659L45.8503 57.273L59.8209 55.6135L61.1334 46.1558L59.4609 46.1724L45.6367 46.1558Z" fill="#FFB6B6"/>
<path d="M57.5202 30.6197L52.2624 26.4688L49.5024 26.3083L45.407 28.9319L44.4042 34.0479L42.0325 39.8089L45.5111 55.356C45.5111 55.356 45.8374 56.4716 44.9824 56.6057C44.1275 56.7397 44.23 58.3841 44.23 58.3841C44.23 58.3841 44.4041 59.8094 43.5739 59.9349C42.7437 60.0604 40.53 60.0604 42.4671 62.5509C44.4042 65.0415 59.7255 55.6218 59.7255 55.6218L61.9508 43.9455C61.9508 43.9455 66.2664 38.1491 61.6188 34.8294L57.5202 30.6197Z" fill="#E6E6E6"/>
<path d="M34.5673 65.9189C34.3356 65.6298 34.1701 65.2934 34.0825 64.9335C33.9949 64.5735 33.9873 64.1987 34.0602 63.8355C34.1331 63.4722 34.2848 63.1294 34.5045 62.8312C34.7242 62.5329 35.0067 62.2864 35.332 62.1091L41.9455 39.9142L46.0809 41.9962L38.8786 63.2698C39.1402 63.836 39.1851 64.4785 39.0047 65.0756C38.8242 65.6726 38.431 66.1828 37.8996 66.5093C37.3682 66.8359 36.7354 66.9561 36.1212 66.8473C35.5071 66.7385 34.9541 66.4081 34.5673 65.9189Z" fill="#A0616A"/>
<path d="M46.3567 28.7266C46.3567 28.7266 45.1746 28.0983 44.366 30.817C43.7187 32.9935 38.466 45.9576 38.399 49.1096C37.9667 49.2012 37.5772 49.434 37.2918 49.7713C37.0064 50.1087 36.8414 50.5314 36.8227 50.9729L43.3172 51.8432C44.452 50.886 44.7498 49.5932 44.3107 49.2095L45.7208 45.3583L51.6036 33.1049L47.2193 29.1656L46.3567 28.7266Z" fill="#E6E6E6"/>
<path d="M81.0588 58.6233C81.1427 58.2625 81.1464 57.8876 81.0697 57.5252C80.9931 57.1627 80.8379 56.8215 80.615 56.5255C80.3922 56.2295 80.1072 55.986 79.7801 55.8121C79.453 55.6382 79.0917 55.5381 78.7218 55.5189L63.5505 38.192L60.3322 42.0321L76.0258 58.0991C76.0348 58.7228 76.2722 59.3215 76.6931 59.7819C77.114 60.2422 77.6891 60.5321 78.3095 60.5967C78.9299 60.6613 79.5524 60.4961 80.0591 60.1324C80.5658 59.7687 80.9215 59.2318 81.0588 58.6233Z" fill="#A0616A"/>
<path d="M54.3452 30.1868C54.3452 30.1868 55.1394 29.1091 57.0441 31.2107C58.569 32.8933 68.9114 42.311 70.3348 45.124C70.7642 45.0197 71.2161 45.0612 71.6193 45.2419C72.0225 45.4227 72.3541 45.7325 72.5619 46.1225L67.0825 49.7157C65.6453 49.3434 64.8178 48.3065 65.0477 47.7707L62.1109 44.9079L51.5077 36.4035L53.7573 30.9556L54.3452 30.1868Z" fill="#E6E6E6"/>
<path d="M110.92 77.7601C132.317 77.7601 149.662 60.4147 149.662 39.0181C149.662 17.6215 132.317 0.276123 110.92 0.276123C89.5236 0.276123 72.1782 17.6215 72.1782 39.0181C72.1782 60.4147 89.5236 77.7601 110.92 77.7601Z" fill="black"/>
<path opacity="0.2" d="M109.088 52.7299C107.313 54.5047 104.906 55.5018 102.396 55.5018C99.8857 55.5018 97.4786 54.5047 95.7038 52.7299C94.1786 51.2042 93.2204 49.2032 92.9878 47.0585C92.7552 44.9137 93.2622 42.7539 94.4249 40.9366L92.3428 43.0608C90.568 44.8356 89.5709 47.2428 89.5709 49.7527C89.5709 52.2627 90.568 54.6698 92.3428 56.4446C94.1176 58.2194 96.5248 59.2165 99.0347 59.2165C101.545 59.2165 103.952 58.2195 105.727 56.4447L110.341 51.6538L110.411 51.356L109.088 52.7299Z" fill="black"/>
<path opacity="0.2" d="M113.483 23.132C115.557 21.719 118.108 21.1881 120.574 21.6559C123.04 22.1237 125.219 23.552 126.632 25.6265C127.846 27.4098 128.415 29.5543 128.243 31.7048C128.072 33.8553 127.172 35.8828 125.691 37.4515L128.132 35.7526C130.207 34.3396 131.635 32.1605 132.103 29.6945C132.57 27.2286 132.04 24.6778 130.627 22.6033C129.214 20.5288 127.035 19.1005 124.569 18.6327C122.103 18.1649 119.552 18.6958 117.477 20.1087L112.051 23.9557L111.927 24.2352L113.483 23.132Z" fill="black"/>
<path d="M99.0348 60.4005C96.9988 60.4005 95.0086 59.7968 93.3157 58.6657C91.6229 57.5346 90.3034 55.9269 89.5243 54.0459C88.7452 52.1649 88.5413 50.0951 88.9385 48.0983C89.3357 46.1014 90.3162 44.2672 91.7558 42.8276L100.492 33.9148C101.447 32.9577 102.582 32.1982 103.831 31.6799C105.081 31.1615 106.42 30.8945 107.772 30.8939C109.125 30.8934 110.464 31.1594 111.714 31.6767C112.964 32.1941 114.099 32.9526 115.055 33.909C115.211 34.0647 115.298 34.2758 115.298 34.496C115.298 34.7161 115.211 34.9273 115.055 35.0829C114.9 35.2386 114.689 35.3261 114.468 35.3261C114.248 35.3261 114.037 35.2386 113.881 35.0829C112.262 33.4639 110.066 32.5543 107.776 32.5543C105.487 32.5543 103.291 33.4639 101.672 35.083C100.389 39.6064 97.6161 42.7102 92.9358 43.9957C92.1327 44.7968 91.4954 45.7483 91.0602 46.7959C90.6251 47.8434 90.4006 48.9664 90.3996 50.1007C90.3987 51.2351 90.6213 52.3584 91.0546 53.4067C91.488 54.455 92.1237 55.4076 92.9254 56.21C93.7271 57.0125 94.6791 57.6491 95.727 58.0835C96.7748 58.5179 97.898 58.7416 99.0323 58.7417C100.167 58.7419 101.29 58.5185 102.338 58.0843C103.386 57.6502 104.338 57.0138 105.14 56.2115C104.951 54.3557 105.493 52.6113 109.743 51.4317C109.818 51.3528 109.909 51.2896 110.009 51.2458C110.109 51.2019 110.216 51.1781 110.326 51.1759C110.435 51.1737 110.543 51.1931 110.645 51.2329C110.747 51.2728 110.84 51.3323 110.918 51.408C110.997 51.4838 111.06 51.5743 111.103 51.6744C111.147 51.7746 111.17 51.8823 111.172 51.9915C111.174 52.1007 111.155 52.2092 111.114 52.3108C111.074 52.4123 111.015 52.505 110.939 52.5834L106.325 57.3743C105.37 58.3361 104.235 59.0989 102.983 59.6184C101.732 60.1379 100.39 60.4037 99.0348 60.4005Z" fill="white"/>
<path d="M113.218 47.7921C111.865 47.7958 110.525 47.5312 109.276 47.0136C108.027 46.4961 106.892 45.7358 105.939 44.7769C105.783 44.6212 105.695 44.41 105.695 44.1899C105.695 43.9697 105.783 43.7585 105.939 43.6028C106.094 43.4472 106.306 43.3597 106.526 43.3598C106.746 43.3598 106.957 43.4473 107.113 43.603C107.914 44.4047 108.866 45.0407 109.914 45.4746C110.961 45.9085 112.084 46.1318 113.218 46.1318C114.351 46.1318 115.474 45.9085 116.521 45.4746C117.569 45.0407 118.521 44.4047 119.322 43.603C120.429 36.9381 124.939 35.9976 128.86 34.0653C129.662 33.2636 130.298 32.3118 130.732 31.2644C131.166 30.2169 131.389 29.0942 131.389 27.9604C131.389 26.8266 131.166 25.7039 130.732 24.6564C130.298 23.6089 129.662 22.6571 128.86 21.8554C128.059 21.0537 127.107 20.4178 126.059 19.9839C125.012 19.55 123.889 19.3267 122.755 19.3267C121.621 19.3267 120.499 19.5501 119.451 19.9839C118.404 20.4178 117.452 21.0538 116.65 21.8555C115.56 25.0022 114.489 28.1861 111.24 27.2655C111.163 27.3426 111.072 27.4037 110.971 27.4454C110.87 27.4872 110.762 27.5086 110.653 27.5086C110.433 27.5086 110.222 27.4212 110.066 27.2655C109.911 27.1098 109.823 26.8987 109.823 26.6785C109.823 26.4584 109.911 26.2472 110.066 26.0915L115.476 20.6815C116.432 19.7257 117.567 18.9674 118.816 18.4501C120.065 17.9328 121.403 17.6665 122.755 17.6665C124.107 17.6665 125.446 17.9328 126.695 18.4501C127.943 18.9674 129.078 19.7256 130.034 20.6815C130.99 21.6374 131.748 22.7722 132.266 24.0211C132.783 25.27 133.049 26.6085 133.049 27.9604C133.049 29.3122 132.783 30.6508 132.266 31.8997C131.748 33.1486 130.99 34.2834 130.034 35.2393L120.496 44.7771C119.543 45.7359 118.408 46.4962 117.159 47.0137C115.91 47.5312 114.57 47.7958 113.218 47.7921Z" fill="white"/>
<path d="M144.581 19.3018C142.954 16.5385 140.996 13.9838 138.75 11.6945C138.249 11.1854 137.732 10.6872 137.203 10.2029C136.91 9.93455 136.614 9.6716 136.312 9.41419C135.739 8.92167 135.15 8.44564 134.549 7.98637C127.766 2.79744 119.46 -0.0096291 110.919 2.48178e-05C89.4065 2.48178e-05 71.9008 17.5031 71.9008 39.0187C71.8998 41.3911 72.1155 43.7586 72.5454 46.0918C72.5461 46.1049 72.548 46.1178 72.5511 46.1306C72.7476 47.2015 72.9911 48.2586 73.2733 49.2963C75.2728 56.621 79.3661 63.2031 85.0513 68.2357C90.7365 73.2683 97.7666 76.5327 105.28 77.6288C112.793 78.7248 120.463 77.6049 127.349 74.4062C134.235 71.2076 140.038 66.0692 144.047 59.6211C144.586 58.7521 145.093 57.861 145.569 56.9478C148.599 51.1007 150.097 44.5809 149.925 37.9976C149.752 31.4142 147.913 24.982 144.581 19.3018ZM110.919 77.484C105.868 77.4857 100.865 76.4919 96.1974 74.5595C91.5298 72.6271 87.2887 69.7938 83.7165 66.2216C80.1444 62.6494 77.3111 58.4084 75.3787 53.7408C73.4462 49.0732 72.4525 44.0705 72.4542 39.0187C72.4542 17.8074 89.711 0.553481 110.919 0.553481C116.052 0.556391 121.132 1.58673 125.86 3.58378C130.588 5.58083 134.868 8.50417 138.448 12.1815C139.382 13.1347 140.263 14.138 141.088 15.1868C141.905 16.2132 142.667 17.2819 143.371 18.3885C146.307 23.0002 148.225 28.185 148.998 33.5968C149.771 39.0087 149.381 44.5232 147.854 49.7723C147.514 50.9456 147.115 52.0941 146.667 53.2204C146.216 54.3495 145.715 55.4564 145.162 56.5301C141.925 62.8276 137.019 68.1136 130.979 71.8093C124.94 75.5051 118 77.4682 110.919 77.484Z" fill="#3F3D56"/>
<path d="M163.999 130.884L161.456 130.862L160.33 120.823L164.084 120.855L163.999 130.884Z" fill="#FFB6B6"/>
<path d="M164.674 129.711L164.01 129.667L161.301 129.481L160.429 129.423L160.412 131.241L156.35 133.997C156.149 134.134 155.997 134.331 155.917 134.559C155.836 134.788 155.83 135.036 155.901 135.269C155.971 135.501 156.114 135.704 156.308 135.849C156.503 135.995 156.738 136.074 156.981 136.076L162.037 136.117L162.922 134.324L163.246 136.128L165.155 136.145L164.674 129.711Z" fill="#2F2E41"/>
<path d="M190.778 129.025L188.347 129.773L184.244 120.542L187.832 119.439L190.778 129.025Z" fill="#FFB6B6"/>
<path d="M191.068 127.704L190.421 127.862L187.784 128.502L186.934 128.709L187.468 130.45L184.427 134.302C184.295 134.47 184.213 134.671 184.19 134.884C184.167 135.096 184.204 135.311 184.297 135.503C184.391 135.695 184.536 135.857 184.717 135.971C184.898 136.084 185.107 136.144 185.321 136.145C185.433 136.144 185.545 136.128 185.653 136.095L190.487 134.609L190.789 132.63L191.644 134.252L193.468 133.69L191.068 127.704Z" fill="#2F2E41"/>
<path d="M158.883 46.467L154.029 60.573L153.869 61.7017C152.646 62.863 154.182 63.2455 153.606 63.5518C153.03 63.858 152.643 64.7165 153.419 64.8699C154.195 65.0233 156.698 120.042 160 122.178C163.301 124.315 165.311 125.86 164.704 122.732C164.46 121.471 164.806 114.714 165.305 107.094C165.362 106.231 166.257 105.317 165.481 104.477C164.704 103.637 165.576 103.085 165.625 102.388C166.321 92.4379 167.125 82.6143 167.125 82.6143C167.125 82.6143 172.271 100.285 173.607 98.9174C174.943 97.5494 174.414 100.917 174.823 101.924C175.164 102.765 173.708 104.417 175.848 104.442C177.987 104.468 183.012 121.644 183.522 121.625C184.532 121.586 187.371 121.695 189.056 121.348C189.889 121.177 186.194 108.172 183.108 96.9426C182.862 96.0471 181.522 96.0263 182.384 94.2973C183.245 92.5683 178.959 81.3812 179.327 80.8638C180.303 79.4905 180.675 78.8936 179.712 78.8037C178.75 78.7137 178.465 79.2418 178.413 77.9096C178.361 76.5774 178.195 73.2924 178.195 73.2924C178.195 73.2924 177.498 60.3003 172.615 53.1224L172.198 48.8575L158.883 46.467Z" fill="#2F2E41"/>
<path d="M171.01 19.5353L164.573 20.4518L164.184 25.1128L161.008 30.0815C161.008 30.0815 153.947 35.0501 158.872 42.8991C156.998 49.6604 155.135 56.1447 153.358 60.4678C151.975 69.0464 164.37 69.8686 178.541 66.8326C178.541 66.8326 178.345 63.1645 177.059 61.401C175.773 59.6376 176.473 59.2526 176.473 59.2526L175.575 55.9581C176.083 51.196 174.367 50.7687 173.56 48.5685L176.009 25.7399L171.01 19.5353Z" fill="#E6E6E6"/>
<path d="M140.109 59.4372C140.177 58.979 140.421 58.5654 140.79 58.2845C141.158 58.0037 141.622 57.8777 142.082 57.9333C142.175 57.9461 142.267 57.9666 142.357 57.9946L146.086 53.0345L149.268 54.041L143.426 60.2834C143.281 60.6474 143.02 60.9531 142.683 61.1529C142.346 61.3527 141.952 61.4354 141.563 61.3879C141.342 61.3588 141.129 61.2865 140.936 61.175C140.743 61.0636 140.574 60.9152 140.438 60.7383C140.303 60.5615 140.203 60.3596 140.145 60.1443C140.088 59.929 140.073 59.7044 140.102 59.4834C140.104 59.468 140.106 59.4526 140.109 59.4372Z" fill="#FFB6B6"/>
<path d="M173.227 28.5556C173.136 28.4421 173.037 28.3315 172.931 28.2235C172.201 27.4702 171.259 26.9552 170.231 26.7458C169.202 26.5365 168.134 26.6426 167.167 27.0502C167.073 27.0889 166.979 27.1332 166.888 27.1775C163.581 28.8018 161.796 29.8839 161.58 30.3903C161.505 30.5619 161.442 30.7307 161.378 30.8939C161.317 31.0544 161.259 31.2066 161.198 31.3449C160.944 31.9372 160.65 32.3052 159.903 32.1392C159.655 32.0786 159.416 31.9865 159.192 31.8653C159.089 31.8154 158.995 31.7629 158.907 31.713C158.586 31.536 158.353 31.4087 158.196 31.5249C158.043 31.6383 158.038 31.9261 158.176 32.5931C158.222 32.8714 158.215 33.1559 158.154 33.4315C157.971 34.2353 157.685 35.0121 157.302 35.7422C156.728 36.8867 156.083 37.994 155.37 39.0574L148.787 48.444L148.341 49.0777L147.854 49.7724L143.969 55.3125L144.199 55.5476L145.162 56.53L145.375 56.7487L145.569 56.9478L146.069 57.4598L146.54 57.9385L157.036 49.3877L158.207 48.4329L160.304 46.7228L164.602 43.2222L172.735 35.6952C173.248 35.2238 173.661 34.6536 173.949 34.0188C174.237 33.384 174.393 32.6976 174.409 32.0008C174.409 31.9538 174.412 31.9095 174.412 31.8625C174.415 30.6558 173.996 29.486 173.227 28.5556Z" fill="#E6E6E6"/>
<path d="M167.145 19.3657C171.118 19.3657 174.338 16.1454 174.338 12.173C174.338 8.20062 171.118 4.98035 167.145 4.98035C163.173 4.98035 159.952 8.20062 159.952 12.173C159.952 16.1454 163.173 19.3657 167.145 19.3657Z" fill="#FFB6B6"/>
<path d="M176.677 22.1466C177.642 23.5282 178.288 25.1073 178.567 26.7694C177.789 27.2671 176.884 27.5285 175.96 27.5219C175.929 27.401 175.898 27.28 175.862 27.1591C175.594 26.2225 175.196 25.3283 174.679 24.5028C174.75 25.393 174.629 26.2881 174.325 27.1277C173.837 26.9059 173.314 26.771 172.78 26.7291C172.345 26.729 171.915 26.8302 171.526 27.0247C171.073 25.5241 170.657 24.1444 170.361 23.1545C170.352 25.6361 166.715 27.7996 162.746 27.4861C162.603 27.3965 164.041 23.3158 163.902 23.2217C163.584 23.0112 163.275 22.7827 162.966 22.5587C164.265 20.5519 165.676 18.4018 165.434 18.0793C165.452 18.478 164.027 20.3952 162.477 22.2048C161.617 21.5733 166.504 11.2975 164.09 10.4643C164.05 10.8272 163.517 10.8272 162.867 10.751C162.696 10.1524 162.441 9.58084 162.11 9.0533C162.153 9.5847 162.089 10.1193 161.922 10.6256C161.28 10.6258 160.641 10.6933 160.014 10.8272C159.869 10.5988 159.708 10.3803 159.534 10.1732C159.551 10.4256 159.544 10.6792 159.512 10.9302C158.871 11.069 158.343 11.2303 158.267 11.3602C157.765 11.1765 158.621 10.3479 158.307 9.91783C157.51 8.84279 158.692 7.27499 159.44 6.16408C160.977 3.88856 164.35 3.10018 166.737 4.46639C166.845 4.09459 167.396 3.84824 168.103 3.6825C168.403 3.61638 168.71 3.5878 169.017 3.59739C172.063 3.65114 176.292 6.16408 176.458 9.20562C176.471 9.51021 176.493 9.84168 176.516 10.1955C176.731 13.5999 176.467 16.74 178.791 19.2305C179.633 20.1309 179.642 24.3953 179.32 26.5902C178.482 25.7078 177.886 22.2765 176.677 22.1466Z" fill="#2F2E41"/>
<path d="M97.4593 39.99C97.9178 39.99 98.2895 39.6183 98.2895 39.1598C98.2895 38.7013 97.9178 38.3296 97.4593 38.3296C97.0008 38.3296 96.6292 38.7013 96.6292 39.1598C96.6292 39.6183 97.0008 39.99 97.4593 39.99Z" fill="#6C63FF"/>
<path d="M123.749 39.4365C124.207 39.4365 124.579 39.0648 124.579 38.6063C124.579 38.1478 124.207 37.7761 123.749 37.7761C123.29 37.7761 122.918 38.1478 122.918 38.6063C122.918 39.0648 123.29 39.4365 123.749 39.4365Z" fill="#6C63FF"/>
<path d="M44.7233 15.1638C44.0915 16.7373 42.3091 19.8316 42.0677 21.5197L42.1764 21.4128C42.3836 21.7669 42.6192 22.1037 42.8807 22.4199C43.3494 21.9276 43.9155 21.5384 44.543 21.2769C44.2003 21.9799 44.0019 22.7444 43.9594 23.5253C44.632 25.6338 47.7417 24.6948 49.5637 24.4646C51.3831 26.5458 53.8038 27.0889 56.9737 25.8924C57.8602 25.9837 58.8526 26.039 59.4739 25.5152C60.0951 24.9914 59.7251 24.0212 60.0594 23.2875C62.4402 18.0609 60.243 16.1752 58.3763 13.8053C57.9654 13.2838 57.9672 12.5055 57.4673 12.0079C56.7737 11.3181 55.7105 11.106 54.7303 10.9361C54.9849 10.9495 55.2388 10.8971 55.4673 10.784C55.6958 10.6709 55.8914 10.5009 56.0352 10.2903C56.1613 10.0782 56.2264 9.83531 56.2233 9.58851C56.2201 9.34171 56.1489 9.10057 56.0174 8.89169C55.6669 8.3105 54.9384 7.97253 54.2356 7.88811C53.5432 7.84109 52.8477 7.90087 52.1735 8.06536C51.7368 8.12281 51.3138 8.25798 50.9247 8.46449C50.7412 8.56244 50.5919 8.71409 50.4968 8.89918C50.4017 9.08426 50.3654 9.29395 50.3927 9.50022C50.4513 9.69071 50.5521 9.86551 50.6876 10.0116C50.8232 10.1577 50.9899 10.2713 51.1755 10.3439C51.4585 10.4636 51.7561 10.545 52.0605 10.5862C50.6622 10.4048 49.2418 10.6534 47.9883 11.299C46.4174 12.1369 45.3573 13.5911 44.7233 15.1638Z" fill="#2F2E41"/>
<path d="M53.2297 23.9854C56.3311 23.9854 58.8452 21.4713 58.8452 18.3699C58.8452 15.2685 56.3311 12.7543 53.2297 12.7543C50.1283 12.7543 47.6141 15.2685 47.6141 18.3699C47.6141 21.4713 50.1283 23.9854 53.2297 23.9854Z" fill="#A0616A"/>
<path d="M47.826 15.3589C48.1517 16.3429 49.0821 16.66 49.9421 16.8578C50.2133 16.921 50.4861 16.9799 50.7615 17.0323C50.8631 16.9053 50.9711 16.7808 51.084 16.6631C51.5527 16.1709 52.1188 15.7816 52.7462 15.5202C52.4749 16.0755 52.2946 16.6708 52.2122 17.2833C52.7321 17.3587 53.2549 17.4204 53.7805 17.4682C54.2253 17.5629 54.6894 17.4831 55.077 17.2453C55.4645 17.0075 55.7459 16.6299 55.863 16.1905C56.3416 16.973 56.9074 17.71 57.6812 18.0209C58.1237 18.1799 58.6054 18.1929 59.0559 18.0582C59.5064 17.9234 59.9018 17.6479 60.1843 17.272C60.6304 16.6589 60.9398 15.9571 61.0914 15.2141C61.311 14.3427 61.433 13.3388 61.0019 12.786C60.6564 12.3385 60.0606 12.3305 59.5108 12.3702C58.2974 12.4632 57.0968 12.6809 55.928 13.0197L55.8291 13.2422C56.0299 12.0354 55.5942 10.8744 54.7881 10.4615C54.2443 10.1854 53.59 10.2317 52.9544 10.2877C52.1379 10.3241 51.3312 10.4801 50.56 10.7507C49.6753 11.091 48.9173 11.6964 48.3898 12.484C47.8256 13.3407 47.5452 14.509 47.826 15.3589Z" fill="#2F2E41"/>
<path d="M55.8316 10.1103C55.7762 10.094 55.9197 10.115 55.8699 10.1163C55.8947 10.1149 55.9193 10.1114 55.9434 10.106C55.9476 10.1052 56.0034 10.0874 55.9663 10.1005C56.0497 10.0756 56.1241 10.027 56.1805 9.9607C56.3124 9.79758 56.4159 9.6134 56.4866 9.41589C56.5759 9.15489 56.7193 8.91571 56.9075 8.71405C56.961 8.66039 57.0263 8.62009 57.0982 8.59642C57.1701 8.57274 57.2466 8.56635 57.3214 8.57778C57.3963 8.5892 57.4674 8.61812 57.529 8.66217C57.5905 8.70622 57.6409 8.76418 57.6758 8.83133C57.7469 9.09037 57.7225 9.36631 57.6073 9.60893C57.5268 9.85581 57.407 10.0881 57.2525 10.2968C56.9937 10.6381 56.6411 10.8968 56.2379 11.0412C55.7711 11.2108 55.2621 11.2253 54.7864 11.0827C54.7235 11.0566 54.6696 11.0128 54.6312 10.9567C54.5928 10.9005 54.5716 10.8344 54.5701 10.7664C54.5686 10.6983 54.5869 10.6313 54.6229 10.5735C54.6588 10.5158 54.7107 10.4697 54.7724 10.4409L55.5657 10.1161C55.6075 10.0978 55.6525 10.0878 55.6981 10.0868C55.7437 10.0858 55.7891 10.0938 55.8316 10.1103C55.8741 10.1269 55.913 10.1516 55.9459 10.1832C55.9789 10.2147 56.0053 10.2524 56.0237 10.2942C56.0421 10.336 56.052 10.3809 56.053 10.4266C56.054 10.4722 56.046 10.5175 56.0295 10.5601C56.013 10.6026 55.9882 10.6414 55.9567 10.6744C55.9251 10.7074 55.8874 10.7338 55.8456 10.7522L55.0522 11.0769L55.0382 10.4351C55.1372 10.4637 55.2391 10.4811 55.3419 10.487C55.4517 10.498 55.5624 10.4933 55.6709 10.4731C55.7747 10.4595 55.8768 10.4346 55.9752 10.3989C56.0383 10.3759 56.1002 10.3497 56.1606 10.3204C56.1825 10.3097 56.2042 10.2986 56.2258 10.2872C56.2242 10.288 56.3165 10.2342 56.2761 10.2595C56.3787 10.1939 56.4749 10.1189 56.5636 10.0355C56.5949 10.0059 56.6238 9.9738 56.6499 9.93951C56.6951 9.88399 56.737 9.82587 56.7754 9.76545C56.8535 9.63751 56.9155 9.50034 56.9597 9.35709C56.9799 9.29688 56.9969 9.23567 57.0107 9.17369C57.0145 9.13968 57.0207 9.10596 57.0291 9.07278C57.0585 8.99372 57.0235 9.11895 57.0574 9.1532L57.2036 9.26097C57.2311 9.26915 57.26 9.27104 57.2883 9.26651C57.3166 9.26198 57.3435 9.25115 57.3671 9.2348C57.3844 9.21041 57.3806 9.21446 57.3557 9.24693C57.3267 9.28515 57.3002 9.32516 57.2763 9.36673C57.2239 9.4646 57.1765 9.56506 57.1343 9.66773C57.047 9.8861 56.9366 10.0945 56.8051 10.2894C56.6762 10.4866 56.4883 10.638 56.2683 10.7222C56.0483 10.8063 55.8073 10.8188 55.5797 10.758C55.4943 10.724 55.4257 10.6578 55.3887 10.5736C55.3517 10.4895 55.3492 10.3942 55.3818 10.3082C55.4167 10.2235 55.483 10.1556 55.5669 10.1187C55.6507 10.0819 55.7456 10.0788 55.8316 10.1103Z" fill="#2F2E41"/>
</g>
<defs>
<clipPath id="clip0_316_293">
<rect width="200" height="136.703" fill="white"/>
</clipPath>
</defs>
</svg>
